HIERARCHY
ROOT Hips
{
	OFFSET 0.000000 0.000000 0.000000
	CHANNELS 6 Xposition Yposition Zposition Zrotation Yrotation Xrotation 
	JOINT LHipJoint
	{
		OFFSET 0.000000 0.000000 0.000000
		CHANNELS 3 Zrotation Yrotation Xrotation
		JOINT LeftUpLeg
		{
			OFFSET 1.363060 -1.794630 0.839290
			CHANNELS 3 Zrotation Yrotation Xrotation
			JOINT LeftLeg
			{
				OFFSET 2.448110 -6.726130 0.000000
				CHANNELS 3 Zrotation Yrotation Xrotation
				JOINT LeftFoot
				{
					OFFSET 2.562200 -7.039590 0.000000
					CHANNELS 3 Zrotation Yrotation Xrotation
					JOINT LeftToeBase
					{
						OFFSET 0.157640 -0.433110 2.322550
						CHANNELS 3 Zrotation Yrotation Xrotation
						End Site
						{
							OFFSET 0.000000 0.000000 0.000000
						}
					}
				}
			}
		}
	}
	JOINT RHipJoint
	{
		OFFSET 0.000000 0.000000 0.000000
		CHANNELS 3 Zrotation Yrotation Xrotation
		JOINT RightUpLeg
		{
			OFFSET -1.305520 -1.794630 0.839290
			CHANNELS 3 Zrotation Yrotation Xrotation
			JOINT RightLeg
			{
				OFFSET -2.542530 -6.985550 0.000000
				CHANNELS 3 Zrotation Yrotation Xrotation
				JOINT RightFoot
				{
					OFFSET -2.568260 -7.056230 0.000000
					CHANNELS 3 Zrotation Yrotation Xrotation
					JOINT RightToeBase
					{
						OFFSET -0.164730 -0.452590 2.363150
						CHANNELS 3 Zrotation Yrotation Xrotation
						End Site
						{
							OFFSET 0.000000 0.000000 0.000000
						}
					}
				}
			}
		}
	}
}
MOTION
Frames: 30
Frame Time: 0.008333
2.850030 16.030030 2.952145 -6.444315 -78.087480 26.758619 -11.270094 -0.218771 3.021700 -1.451782 0.809100 -50.856183 -0.781966 2.788449 49.664433 2.642674 11.461448 -16.304546 -1.491600 -0.000000 -56.850700 9.675888 1.125278 -1.229165 -4.630114 -18.279261 -28.047381 1.883849 -0.985084 26.627965 -1.666618 -8.209409 -3.421540 -1.092600 -0.000000 -79.787700
2.827357 16.019772 2.977370 -4.706801 -75.690385 25.350027 -11.151056 -0.190385 3.438740 -1.259448 -0.899610 -51.583377 -0.706901 2.722693 49.719323 2.539828 10.807960 -16.149000 -1.380000 0.000001 -57.006500 9.759943 1.103634 -1.436781 -4.531451 -19.400408 -27.425615 1.878609 -0.971484 26.485146 -1.891502 -9.481094 -3.464075 -1.232500 0.000000 -79.519100
2.803011 16.015847 3.001218 -3.243850 -73.251510 24.245822 -11.028339 -0.156077 3.860574 -1.097442 -2.600134 -52.257745 -0.645847 2.643629 49.591312 2.422913 10.101105 -15.893474 -1.248600 0.000001 -57.187900 9.840097 1.068920 -1.631390 -4.443124 -20.508099 -26.732720 1.872640 -0.940685 26.152680 -2.126143 -10.821247 -3.410197 -1.403800 0.000000 -79.177500
2.777274 16.018509 3.023457 -1.951081 -70.782575 23.334599 -10.895049 -0.112486 4.280369 -0.976587 -4.287864 -52.854597 -0.600770 2.551669 49.269677 2.292301 9.345495 -15.536140 -1.101800 0.000000 -57.376600 9.924228 1.027417 -1.817986 -4.377653 -21.616036 -25.959752 1.865899 -0.892977 25.623646 -2.365703 -12.207724 -3.251012 -1.612599 -0.000000 -78.835900
2.750250 16.027812 3.044182 -0.779118 -68.292686 22.566525 -10.747693 -0.058128 4.695527 -0.900448 -5.960764 -53.364653 -0.572253 2.447588 48.748993 2.149176 8.547917 -15.075152 -0.944400 -0.000001 -57.563400 10.016428 0.982341 -1.997990 -4.337999 -22.726568 -25.109459 1.858348 -0.828473 24.897373 -2.606485 -13.624793 -2.982401 -1.865900 0.000001 -78.488900
2.721659 16.043451 3.064002 0.279980 -65.791743 21.946542 -10.586570 0.007008 5.108585 -0.856834 -7.612315 -53.803024 -0.559226 2.332934 48.030997 1.994868 7.713873 -14.507315 -0.780500 -0.000000 -57.770199 10.116573 0.932424 -2.166318 -4.306423 -23.817627 -24.202300 1.849082 -0.746064 23.977736 -2.848507 -15.075121 -2.605474 -2.173200 0.000000 -78.059300
2.691779 16.065287 3.082616 1.276030 -63.293632 21.420638 -10.407718 0.083309 5.514509 -0.855675 -9.249060 -54.146882 -0.562178 2.207603 47.110384 1.832536 6.862127 -13.834424 -0.616901 -0.000000 -57.965700 10.230256 0.883404 -2.327147 -4.302063 -24.897618 -23.240241 1.837175 -0.648626 22.877001 -3.086081 -16.533998 -2.112547 -2.541500 0.000000 -77.642700
2.660767 16.092888 3.100131 2.223870 -60.813252 20.976770 -10.210755 0.169493 5.912048 -0.893682 -10.872733 -54.392529 -0.580288 2.072358 45.988944 1.665558 6.011064 -13.058380 -0.459000 -0.000000 -58.143800 10.358966 0.837502 -2.479797 -4.328153 -25.954109 -22.238057 1.821139 -0.538416 21.615740 -3.316436 -17.989547 -1.506014 -2.977300 -0.000000 -77.193300
2.628777 16.125690 3.116766 3.126407 -58.367777 20.617560 -9.996542 0.263125 6.301082 -0.960586 -12.481481 -54.545595 -0.611939 1.927919 44.671134 1.497525 5.180575 -12.179020 -0.311200 0.000000 -58.323400 10.502784 0.795111 -2.620773 -4.378407 -26.961616 -21.218435 1.798708 -0.417773 20.219937 -3.539278 -19.440655 -0.792012 -3.487100 0.000000 -76.692699
2.596228 16.163153 3.132298 4.004258 -55.975891 20.316465 -9.765409 0.361855 6.677852 -1.055487 -14.080550 -54.588863 -0.656524 1.774860 43.161909 1.332959 4.396947 -11.203975 -0.177901 -0.000000 -58.476900 10.663029 0.760291 -2.754283 -4.468585 -27.921210 -20.186872 1.768811 -0.291158 18.717724 -3.749489 -20.863812 0.031133 -4.074300 0.000000 -76.192200
2.563511 16.204618 3.146732 4.857752 -53.657661 20.069302 -9.519857 0.462087 7.040508 -1.167116 -15.667915 -54.520039 -0.712379 1.614059 41.471880 1.175984 3.684065 -10.139467 -0.060900 -0.000000 -58.607200 10.838262 0.734001 -2.880733 -4.599083 -28.818337 -19.158045 1.730268 -0.162530 17.143106 -3.945057 -22.247009 0.953199 -4.738500 -0.000000 -75.678200
2.531091 16.249423 3.160000 5.687482 -51.433539 19.867743 -9.263191 0.559983 7.386615 -1.283595 -17.240198 -54.335308 -0.777805 1.446516 39.615365 1.030599 3.065376 -8.994521 0.040300 -0.000000 -58.708300 11.026245 0.716939 -3.002347 -4.772281 -29.646302 -18.141154 1.682814 -0.036090 15.529052 -4.123033 -23.572878 1.965235 -5.475600 0.000000 -75.139501
2.499524 16.296873 3.172011 6.488420 -49.323382 19.704443 -8.999825 0.651484 7.713513 -1.390688 -18.790844 -54.032753 -0.850664 1.273455 37.612146 0.900376 2.561801 -7.780468 0.128500 0.000000 -58.776900 11.223461 0.708812 -3.122129 -4.987909 -30.403428 -17.142583 1.627318 0.084272 13.906124 -4.280344 -24.821860 3.056064 -6.277001 -0.000000 -74.604500
2.469356 16.346291 3.182698 7.253270 -47.345427 19.571450 -8.734783 0.732815 8.018599 -1.474392 -20.310806 -53.613784 -0.928590 1.096319 35.486635 0.788158 2.189577 -6.510495 0.208700 0.000000 -58.809400 11.425528 0.708357 -3.243700 -5.243114 -31.094896 -16.166933 1.566067 0.195099 12.302074 -4.413563 -25.970541 4.212231 -7.127300 0.000000 -74.074400
2.440912 16.396879 3.192089 7.973897 -45.514979 19.462081 -8.473743 0.801371 8.300154 -1.522310 -21.786558 -53.087386 -1.009286 0.917284 33.273557 0.695332 1.954590 -5.203927 0.287000 0.000001 -58.776500 11.627261 0.713197 -3.371307 -5.532051 -31.739229 -15.219668 1.504476 0.293645 10.743691 -4.517382 -26.980732 5.406927 -7.995200 0.000000 -73.547100
2.414816 16.448318 3.200035 8.636759 -43.851285 19.374974 -8.223234 0.853332 8.553486 -1.519511 -23.201295 -52.460568 -1.089107 0.737258 30.994386 0.623810 1.867856 -3.867088 0.372100 -0.000000 -58.736800 11.823974 0.719232 -3.501677 -5.841410 -32.309128 -14.299396 1.438884 0.379700 9.230569 -4.597467 -27.885844 6.670496 -8.898200 0.000000 -73.046400
2.391209 16.499685 3.206717 9.234753 -42.360000 19.301208 -7.988751 0.889153 8.778373 -1.466013 -24.536288 -51.752546 -1.166487 0.559749 28.699055 0.571893 1.913449 -2.528493 0.469200 0.000000 -58.625300 12.010523 0.723712 -3.640858 -6.164346 -32.853025 -13.414518 1.380450 0.451784 7.785456 -4.644790 -28.620726 7.954889 -9.778200 0.000000 -72.628200
2.370271 16.550490 3.212218 9.758986 -41.050648 19.239982 -7.776271 0.908561 8.972147 -1.361129 -25.768976 -50.981380 -1.239148 0.386939 26.422339 0.537986 2.077721 -1.203680 0.583600 0.000000 -58.459000 12.182944 0.722322 -3.785652 -6.486034 -33.365584 -12.569292 1.330400 0.510929 6.407661 -4.661862 -29.193062 9.261996 -10.625400 0.000000 -72.273400
2.351952 16.600101 3.216589 10.207858 -39.925992 19.185881 -7.589601 0.913197 9.134183 -1.216285 -26.879786 -50.165628 -1.306376 0.221214 24.201008 0.519127 2.337930 0.088836 0.717200 0.000000 -58.242900 12.338790 0.712880 -3.936579 -6.799900 -33.871970 -11.774940 1.295737 0.556969 5.110011 -4.645008 -29.566069 10.563487 -11.395000 0.000000 -71.935000
2.336286 16.648085 3.220012 10.578364 -38.987309 19.140717 -7.433107 0.904872 9.263236 -1.045652 -27.844889 -49.327751 -1.368009 0.064835 22.068945 0.511162 2.663446 1.331924 0.868600 -0.000000 -57.976100 12.476108 0.693234 -4.087621 -7.092738 -34.364403 -11.040834 1.275199 0.592243 3.882536 -4.601104 -29.777321 11.879869 -12.099800 0.000000 -71.782900
2.322930 16.693848 3.222628 10.876651 -38.230164 19.101188 -7.307933 0.886600 9.360651 -0.871440 -28.647883 -48.485066 -1.425539 -0.080714 20.053593 0.509630 3.022538 2.510085 1.033000 0.000000 -57.670700 12.594488 0.663395 -4.238558 -7.363120 -34.869321 -10.383885 1.276769 0.616362 2.747283 -4.525328 -29.772353 13.157603 -12.674400 -0.000000 -71.627100
2.311585 16.737132 3.224687 11.104460 -37.651533 19.077771 -7.217426 0.860591 9.425718 -0.708797 -29.265957 -47.662306 -1.479907 -0.214187 18.178636 0.509398 3.378132 3.611044 1.202100 0.000000 -57.338400 12.693376 0.620955 -4.376982 -7.591427 -35.342841 -9.808019 1.292212 0.634181 1.673230 -4.431423 -29.634360 14.427625 -13.165500 -0.000000 -71.654300
2.301920 16.777504 3.226161 11.274592 -37.240340 19.066231 -7.159222 0.829183 9.461154 -0.581003 -29.695662 -46.871859 -1.533834 -0.335669 16.456322 0.506709 3.704342 4.626855 1.367799 -0.000000 -56.992100 12.774191 0.569883 -4.503657 -7.783945 -35.810646 -9.333620 1.327248 0.644234 0.690813 -4.316588 -29.320990 15.641327 -13.520300 0.000000 -71.718400
2.293549 16.814771 3.227216 11.394660 -36.987746 19.076005 -7.133082 0.793626 9.467510 -0.498590 -29.930837 -46.133708 -1.588593 -0.445426 14.895416 0.498134 3.976052 5.553221 1.521001 0.000000 -56.650000 12.838028 0.510327 -4.607973 -7.928043 -36.228422 -8.962466 1.372705 0.650416 -0.225542 -4.193548 -28.908668 16.815921 -13.784400 0.000000 -71.939700
2.285985 16.848753 3.227760 11.478419 -36.878839 19.107403 -7.135122 0.754911 9.447424 -0.470580 -29.980891 -45.459832 -1.645878 -0.544458 13.497296 0.481822 4.179832 6.389156 1.655000 0.000000 -56.327100 12.886792 0.445997 -4.689039 -8.025682 -36.597744 -8.704636 1.428668 0.652592 -1.060221 -4.064086 -28.391405 17.914569 -13.936499 -0.000000 -72.188400
2.278619 16.879197 3.227613 11.546056 -36.895544 19.156312 -7.158197 0.713452 9.404959 -0.501716 -29.871352 -44.857775 -1.707224 -0.634610 12.255164 0.458067 4.318429 7.138608 1.767900 0.000000 -56.033700 12.924197 0.383830 -4.749366 -8.090420 -36.935481 -8.571520 1.495848 0.649234 -1.788807 -3.928882 -27.757592 18.909303 -13.958000 -0.000000 -72.484701
2.271395 16.906251 3.226754 11.595492 -37.023875 19.235413 -7.200848 0.668769 9.339285 -0.580538 -29.613085 -44.344483 -1.771126 -0.715984 11.170576 0.426389 4.384793 7.803626 1.855100 0.000000 -55.786701 12.951421 0.321213 -4.778598 -8.102442 -37.170650 -8.541625 1.559564 0.646105 -2.461616 -3.803413 -27.117879 19.818487 -13.925400 0.000000 -72.799900
2.263641 16.929748 3.224816 11.646477 -37.240066 19.335574 -7.253130 0.621138 9.255928 -0.703425 -29.247557 -43.920871 -1.838152 -0.790376 10.232812 0.389272 4.397448 8.390692 1.920900 0.000000 -55.589699 12.973428 0.265893 -4.785587 -8.083290 -37.344585 -8.620532 1.623916 0.640332 -3.044980 -3.683845 -26.437020 20.606292 -13.806800 0.000000 -73.119100
2.255185 16.949767 3.221612 11.702025 -37.523524 19.457986 -7.309316 0.570586 9.157129 -0.856989 -28.804144 -43.592329 -1.906745 -0.858066 9.438480 0.348415 4.366484 8.903971 1.967300 -0.000000 -55.449000 12.993750 0.218465 -4.770227 -8.032922 -37.439437 -8.787915 1.682349 0.634254 -3.561070 -3.576532 -25.767308 21.276280 -13.640200 -0.000000 -73.431301
2.245839 16.966340 3.216864 11.765702 -37.850830 19.598073 -7.362094 0.517744 9.047405 -1.030500 -28.318341 -43.358520 -1.975670 -0.919411 8.782013 0.306109 4.307551 9.348258 1.998900 -0.000000 -55.365701 13.016604 0.180677 -4.736881 -7.959876 -37.465704 -9.026222 1.733147 0.628534 -4.016957 -3.482948 -25.127643 21.822916 -13.440000 -0.000000 -73.714500
